<?xml version="1.0" ?><svg style="enable-background:new 0 0 48 48;" version="1.1" viewBox="0 0 48 48" xml:space="preserve" xmlns="http://www.w3.org/2000/svg" xmlns:xlink="http://www.w3.org/1999/xlink"><style type="text/css">
	.st0{fill:none;stroke:#020202;stroke-width:0.5;stroke-linecap:round;stroke-linejoin:round;stroke-miterlimit:10;}
	.st1{fill:#020202;}
	.st2{fill:none;stroke:#202020;stroke-width:0.8;stroke-linecap:round;stroke-linejoin:round;stroke-miterlimit:10;}
	.st3{fill:#202020;}
	.st4{fill:none;stroke:#202020;stroke-width:0.6;stroke-linecap:round;stroke-linejoin:round;stroke-miterlimit:10;}
	.st5{fill:none;stroke:#000000;stroke-width:0.6;stroke-linecap:round;stroke-linejoin:round;stroke-miterlimit:10;}
	.st6{fill:none;stroke:#000000;stroke-width:0.7;stroke-linecap:round;stroke-linejoin:round;stroke-miterlimit:10;}
	.st7{fill:none;stroke:#020202;stroke-width:0.6;stroke-linecap:round;stroke-linejoin:round;stroke-miterlimit:10;}
	.st8{fill:none;stroke:#000000;stroke-width:0.4;stroke-linecap:round;stroke-linejoin:round;stroke-miterlimit:10;}
	.st9{fill:none;stroke:#000000;stroke-width:0.3;stroke-linecap:round;stroke-linejoin:round;stroke-miterlimit:10;}
	.st10{fill:none;stroke:#202020;stroke-width:0.4;stroke-linecap:round;stroke-linejoin:round;stroke-miterlimit:10;}
	.st11{fill:none;stroke:#020202;stroke-width:0.65;stroke-linecap:round;stroke-linejoin:round;stroke-miterlimit:10;}
	.st12{fill:none;stroke:#303030;stroke-width:0.65;stroke-linecap:round;stroke-linejoin:round;stroke-miterlimit:10;}
	.st13{fill:#303030;}
	.st14{fill:none;stroke:#303030;stroke-width:0.45;stroke-linecap:round;stroke-linejoin:round;stroke-miterlimit:10;}
	.st15{fill:none;stroke:#303030;stroke-width:0.5;stroke-linecap:round;stroke-linejoin:round;stroke-miterlimit:10;}
	.st16{fill:none;stroke:#000000;stroke-width:0.35;stroke-linecap:round;stroke-linejoin:round;stroke-miterlimit:10;}
	.st17{fill:none;stroke:#303030;stroke-width:0.4;stroke-linecap:round;stroke-linejoin:round;stroke-miterlimit:10;}
</style><g id="Padding__x26__Artboard"/><g id="Icons"><g><path class="st5" d="M14.56,11.7c0,0-1.55-1.76,0.78-3.85c0,0-0.47,0.95,0.24,0.98c0.71,0.03,1.28-1.35,1.12-2.7    c0,0,2.64,3.01,0.57,5.58"/><polyline class="st5" points="18.03,11.7 17.7,13.38 14.05,13.38 13.72,11.7 18.03,11.7   "/><g><path class="st5" d="M16.22,14.57c0,0,0.76,0.35,0.24,1c0,0,0.65,0.77,0,1.12c0,0,0.49,0.57,0,1.08h-1.84     c-0.49-0.51,0-1.08,0-1.08c-0.65-0.35,0-1.12,0-1.12c-0.53-0.65,0.24-1,0.24-1H16.22z"/><line class="st5" x1="14.61" x2="16.45" y1="15.57" y2="15.57"/><line class="st5" x1="14.61" x2="16.45" y1="16.68" y2="16.68"/></g><line class="st5" x1="14.85" x2="14.85" y1="14.57" y2="13.38"/><polyline class="st5" points="14.85,17.77 14.85,19.58 16.81,19.58 16.81,13.38   "/><path class="st5" d="M14.84,19.58c0,0,0.23,0.56,0.69,0.85c0,0-0.31,2.42-0.29,5.32c0.02,2.55,0.07,3.58,1.04,5.19    c0,0,1.58-1.45,1.77-2.53c0.2-1.08-0.18-4.34-0.71-6.66c0-0.01,0-0.01-0.01-0.02c-0.01-0.07-0.02-0.13-0.04-0.2    c-0.43-2.09,0.18-2.15,0.54-2.98c0.37-0.86,0.59-2.4,0.22-2.98c-0.36-0.59-1.24-0.72-1.24-0.72"/><path class="st5" d="M15.35,28.35c0,0-0.75,1.62-0.71,3.09s0.83,1.76,1.61,1.7c0.79-0.06,2.25-1.46,2.9-2.2"/><path class="st5" d="M15.85,30.16c0,0-0.44,1.18,0.1,1.56"/><path class="st5" d="M17.78,29.11c0.03-0.06,1.17-2.05,1.17-2.05"/><polyline class="st5" points="15.82,33.14 15.68,34.09 17.02,35.71   "/><path class="st5" d="M19.14,33.46c0,0-2.51,2.93-2.48,3.54s0.15,1.13,0.74,1.77"/><line class="st5" x1="23.14" x2="19.16" y1="38.55" y2="41.04"/><path class="st5" d="M16.51,39.79c0.01-0.01,0.02-0.02,0.02-0.04c0.39-0.74,2.42-2.26,5.48-3.95c1.53-0.83,2.74-1.37,3.75-1.57    c0.9-0.16,2.69,0.15,3.41,0.29c0.2,0.04,0.31,0.06,0.31,0.06"/><path class="st5" d="M26.5,41.65c0.15-2.2,0.67-7.42,0.67-7.42c-2.05,1.32-4.26,4.82-6.29,7.3"/><path class="st5" d="M29.97,35.61c0,0,2.1,3.44,2.22,3.53"/><path class="st5" d="M29.18,34.52c0,0,0.02,2.43-0.13,2.86c-0.15,0.42-0.48,0.38-0.48,1.39c0,0.77-0.02,1.69-0.34,2.48"/><path class="st5" d="M30.56,40.31l-0.42-4.01c-0.04-0.25-0.1-0.47-0.17-0.67c0.01-0.01,0-0.01,0-0.01    c-0.11-0.4-0.28-0.74-0.48-1.03c-0.88-1.32-2.4-1.68-3.72-1.83c-1.77-0.2-1.84-0.76-2.7-1.45c-0.86-0.69-3.3-2.4-3.3-2.4    c-0.05-2.36-1.75-2.76-1.75-2.76"/><g><g><g><path class="st5" d="M24.62,30.77c2.46-0.25,2.44-3.66,2.44-3.66c-0.02-0.26-0.3-0.59-1.21-1c-0.92-0.41-1.08-1.08-1.08-1.08       s-0.52,0.78-1.18,0.99c-0.67,0.21-1.38,0.43-1.39,1.09c0,0-0.02,3.49,2.44,3.66"/></g><path class="st5" d="M26.44,32.68c0,0,0.3-1.23,1.27-1.95c0.67-0.5,0.74-1.5,0.23-2.64c0,0,0.65-3.1-3.06-3.67      c0,0-3.06,0.14-3.44,2.54c-0.09,0.57,0,1.31,0,1.31c-0.55,0.41-0.77,0.94-0.77,0.94"/><path class="st5" d="M21.42,27.26c0,0.01-0.74-4.44,3.44-4.35c3.79,0.08,3.1,4.18,3.1,4.18"/><g><polyline class="st5" points="27.84,24.99 31.98,21.8 27.39,24      "/><polyline class="st5" points="26.66,23.42 28.73,18.91 25.77,22.93      "/></g><g><line class="st5" x1="21.82" x2="17.4" y1="24" y2="21.8"/><line class="st5" x1="21.38" x2="17.43" y1="24.99" y2="21.98"/><polyline class="st5" points="22.56,23.42 20.49,18.91 23.45,22.93      "/></g><polyline class="st5" points="25.06,22.92 24.53,18.25 23.93,22.98     "/></g><line class="st5" x1="26" x2="26" y1="30.14" y2="32.57"/><line class="st5" x1="23.19" x2="23.19" y1="30.14" y2="31.21"/><path class="st5" d="M28.07,30.33c0,0,0.57,1.38,0.34,3.13"/></g><path class="st5" d="M16.78,14.81c2.13-1.22,4.59-1.92,7.22-1.92c8,0,14.49,6.49,14.49,14.5c0,5.64-3.23,10.52-7.94,12.93    c-0.75,0.37-1.52,0.69-2.33,0.93c-0.56,0.17-1.14,0.31-1.73,0.4c-0.81,0.15-1.64,0.22-2.49,0.22c-1.08,0-2.12-0.12-3.13-0.34    c-0.59-0.12-1.17-0.28-1.72-0.49c-0.93-0.32-1.82-0.75-2.65-1.25c-4.19-2.54-7-7.14-7-12.4c0-4.33,1.9-8.21,4.9-10.87"/></g></g></svg>